<?xml version="1.0" encoding="UTF-8" standalone="no"?>
<!DOCTYPE svg PUBLIC "-//W3C//DTD SVG 1.1//EN"
 "http://www.w3.org/Graphics/SVG/1.1/DTD/svg11.dtd">
<!-- Generated by graphviz version 2.38.0 (20140413.2041)
 -->
<!-- Title: G Pages: 1 -->
<svg width="373pt" height="294pt"
 viewBox="0.00 0.00 372.79 294.00" xmlns="http://www.w3.org/2000/svg" xmlns:xlink="http://www.w3.org/1999/xlink">
<g id="graph0" class="graph" transform="scale(1 1) rotate(0) translate(4 290)">
<title>G</title>
<polygon fill="white" stroke="none" points="-4,4 -4,-290 368.787,-290 368.787,4 -4,4"/>
<g id="clust1" class="cluster"><title>cluster_Global</title>
<path fill="none" stroke="gray" d="M218.787,-8C218.787,-8 344.787,-8 344.787,-8 350.787,-8 356.787,-14 356.787,-20 356.787,-20 356.787,-266 356.787,-266 356.787,-272 350.787,-278 344.787,-278 344.787,-278 218.787,-278 218.787,-278 212.787,-278 206.787,-272 206.787,-266 206.787,-266 206.787,-20 206.787,-20 206.787,-14 212.787,-8 218.787,-8"/>
<text text-anchor="middle" x="281.787" y="-265.2" font-family="Times,serif" font-size="11.00" fill="gray">Global</text>
</g>
<g id="clust2" class="cluster"><title>cluster_\PHPRouter</title>
<path fill="none" stroke="gray" d="M226.787,-16C226.787,-16 336.787,-16 336.787,-16 342.787,-16 348.787,-22 348.787,-28 348.787,-28 348.787,-238 348.787,-238 348.787,-244 342.787,-250 336.787,-250 336.787,-250 226.787,-250 226.787,-250 220.787,-250 214.787,-244 214.787,-238 214.787,-238 214.787,-28 214.787,-28 214.787,-22 220.787,-16 226.787,-16"/>
<text text-anchor="middle" x="281.787" y="-237.2" font-family="Times,serif" font-size="11.00" fill="gray">PHPRouter</text>
</g>
<!-- \\PHPRouter\\Route -->
<g id="node1" class="node"><title>\\PHPRouter\\Route</title>
<polygon fill="none" stroke="black" points="308.787,-222 254.787,-222 254.787,-186 308.787,-186 308.787,-222"/>
<text text-anchor="middle" x="281.787" y="-201.2" font-family="Courier,monospace" font-size="11.00">Route</text>
</g>
<!-- \\PHPRouter\\Router -->
<g id="node2" class="node"><title>\\PHPRouter\\Router</title>
<polygon fill="none" stroke="black" points="310.287,-168 253.287,-168 253.287,-132 310.287,-132 310.287,-168"/>
<text text-anchor="middle" x="281.787" y="-147.2" font-family="Courier,monospace" font-size="11.00">Router</text>
</g>
<!-- \\PHPRouter\\RouteCollection -->
<g id="node3" class="node"><title>\\PHPRouter\\RouteCollection</title>
<polygon fill="none" stroke="black" points="340.787,-114 222.787,-114 222.787,-78 340.787,-78 340.787,-114"/>
<text text-anchor="middle" x="281.787" y="-93.2" font-family="Courier,monospace" font-size="11.00">RouteCollection</text>
</g>
<!-- \\SplObjectStorage -->
<g id="node5" class="node"><title>\\SplObjectStorage</title>
<ellipse fill="none" stroke="black" cx="75.3933" cy="-96" rx="75.2868" ry="18"/>
<text text-anchor="middle" x="75.3933" y="-92.3" font-family="Times,serif" font-size="14.00" fill="gray">\SplObjectStorage</text>
</g>
<!-- \\PHPRouter\\RouteCollection&#45;&gt;\\SplObjectStorage -->
<g id="edge1" class="edge"><title>\\PHPRouter\\RouteCollection&#45;&gt;\\SplObjectStorage</title>
<path fill="none" stroke="black" d="M222.762,-96C203.593,-96 181.856,-96 161.109,-96"/>
<polygon fill="none" stroke="black" points="161.02,-92.5001 151.02,-96 161.02,-99.5001 161.02,-92.5001"/>
</g>
<!-- \\PHPRouter\\Config -->
<g id="node4" class="node"><title>\\PHPRouter\\Config</title>
<polygon fill="none" stroke="black" points="310.287,-60 253.287,-60 253.287,-24 310.287,-24 310.287,-60"/>
<text text-anchor="middle" x="281.787" y="-39.2" font-family="Courier,monospace" font-size="11.00">Config</text>
</g>
</g>
</svg>
